<svg xmlns="http://www.w3.org/2000/svg" width="31.025" height="31.018" viewBox="0 0 31.025 31.018">
  <g id="cloud-computing_2_" data-name="cloud-computing (2)" transform="translate(-0.001 -0.056)">
    <g id="Group_8020" data-name="Group 8020" transform="translate(0.001 0.056)">
      <g id="Group_8019" data-name="Group 8019" transform="translate(0 0)">
        <path id="Path_5932" data-name="Path 5932" d="M28.67,10.482a8.626,8.626,0,0,0,.146-1.571A8.865,8.865,0,0,0,11.617,5.9a4.432,4.432,0,0,0-5.95,3.084,6.649,6.649,0,0,0,.986,13.225h5.541a1.108,1.108,0,1,0,0-2.216H6.653a4.433,4.433,0,1,1,0-8.865,1.108,1.108,0,0,0,1.108-1.108,2.216,2.216,0,0,1,3.768-1.579A1.108,1.108,0,0,0,13.4,7.828a6.642,6.642,0,0,1,13.1,2.178q-.054.324-.139.641a1.108,1.108,0,0,0,.458,1.219,4.433,4.433,0,0,1-2.44,8.126H21.059a1.108,1.108,0,0,0,0,2.216h3.324A6.649,6.649,0,0,0,28.67,10.482Z" transform="translate(-0.001 -0.056)"/>
      </g>
    </g>
    <g id="Group_8022" data-name="Group 8022" transform="translate(9.991 10.018)">
      <g id="Group_8021" data-name="Group 8021">
        <path id="Path_5933" data-name="Path 5933" d="M166.8,167.113a1.108,1.108,0,0,0-1.54,0l-3.651,3.649V154.6a1.108,1.108,0,0,0-2.216,0v16.163l-3.649-3.649a1.108,1.108,0,0,0-1.567,1.567l5.541,5.541a1.108,1.108,0,0,0,1.567,0l0,0,5.541-5.541A1.108,1.108,0,0,0,166.8,167.113Z" transform="translate(-153.865 -153.491)"/>
      </g>
    </g>
  </g>
</svg>
