<svg xmlns="http://www.w3.org/2000/svg" width="14.384" height="14.15" viewBox="0 0 14.384 14.15">
  <path id="edit-text" d="M3.6,13.114h.074l1.96-.181a1.182,1.182,0,0,0,.723-.341l7.4-7.4a1.825,1.825,0,0,0,0-2.6l-.475-.475a1.883,1.883,0,0,0-2.6,0l-.943.943h0L3.284,9.515a1.139,1.139,0,0,0-.335.723L2.769,12.2a.86.86,0,0,0,.241.669.826.826,0,0,0,.589.248Zm8.383-10.53a.81.81,0,0,1,.589.248l.475.475a.826.826,0,0,1,.248.589.814.814,0,0,1-.248.589l-.589.589L10.8,3.42l.589-.589a.837.837,0,0,1,.589-.248ZM3.946,10.331a.142.142,0,0,1,.047-.1l6.095-6.1L11.74,5.781,5.646,11.876a.28.28,0,0,1-.1.047l-1.76.161.161-1.76Zm11.688,4.917a.505.505,0,0,1-.5.5H1.752a.5.5,0,1,1,0-1H15.132A.505.505,0,0,1,15.634,15.248Z" transform="translate(-1.25 -1.6)" fill="#1e1e1e"/>
</svg>
