<svg id="Group_492" data-name="Group 492" xmlns="http://www.w3.org/2000/svg" width="12.342" height="12.342" viewBox="0 0 12.342 12.342">
  <rect id="Rectangle_210" data-name="Rectangle 210" width="12.342" height="12.342" fill="none"/>
  <g id="create-outline" transform="translate(1.543 1.543)">
    <path id="Path_886" data-name="Path 886" d="M71.405,130.222v4.258a.926.926,0,0,1-.926.926H64.926a.926.926,0,0,1-.926-.926v-5.554a.926.926,0,0,1,.926-.926H68.8" transform="translate(-64 -126.149)" fill="none" stroke="#fff" stroke-linecap="round" stroke-linejoin="round" stroke-width="1"/>
    <path id="Path_887" data-name="Path 887" d="M422.886,48.121a.372.372,0,0,0-.537-.013l-.286.285a.185.185,0,0,0,0,.262l.262.262a.185.185,0,0,0,.262,0l.279-.278A.376.376,0,0,0,422.886,48.121Z" transform="translate(-413.724 -48)" fill="#fff"/>
    <path id="Path_888" data-name="Path 888" d="M212.426,87.434l-4.177,4.17a.208.208,0,0,0-.053.091L208,92.27a.09.09,0,0,0,.112.112l.575-.193a.208.208,0,0,0,.091-.053l4.17-4.178a.208.208,0,0,0,0-.293l-.23-.231A.208.208,0,0,0,212.426,87.434Z" transform="translate(-204.666 -86.462)" fill="#fff"/>
  </g>
</svg>
