<svg xmlns="http://www.w3.org/2000/svg" width="1505.623" height="847.001" viewBox="0 0 1505.623 847.001">
  <g id="Group_1483" data-name="Group 1483" transform="translate(-12272 1042.001)">
    <path id="Subtraction_1" data-name="Subtraction 1" d="M-8377.171-2382.091h-446.872V-3229h1163.636c-4.587,4.382-9.546,8.655-14.736,12.7-4.982,3.885-10.331,7.68-15.9,11.279a283.144,283.144,0,0,1-34.531,18.865c-11.265,5.224-23.354,10.1-36.958,14.895-11.245,3.966-23.646,7.914-37.914,12.068-8.536,2.473-17.206,4.893-25.59,7.233l-.017,0c-24.634,6.877-50.106,13.989-74.257,22.956a360.46,360.46,0,0,0-35.378,15.161,256.073,256.073,0,0,0-33.127,19.538,181.462,181.462,0,0,0-17.857,14.278,185.636,185.636,0,0,0-16.094,16.556,178.949,178.949,0,0,0-13.858,18.433,163.7,163.7,0,0,0-11.151,19.909c-13.861,29.5-16.657,59.369-8.085,86.386a139.508,139.508,0,0,0,11.539,25.832c4.63,8.279,9.932,16.438,15.059,24.328l.006.01c6,9.228,12.2,18.77,17.328,28.52a138.971,138.971,0,0,1,6.844,14.937,99.515,99.515,0,0,1,4.674,15.77,89.992,89.992,0,0,1,.049,35.5,111.719,111.719,0,0,1-12.6,33.539c-11.75,20.829-29.956,39.329-51.265,52.094-5.082,3.044-10.476,5.927-16.029,8.568-5.294,2.517-10.9,4.9-16.672,7.07a284.462,284.462,0,0,1-34.821,10.477c-24.193,5.748-49.8,9.15-72.4,12.152-26.065,3.463-49.5,6.781-72.38,12.34a278.7,278.7,0,0,0-34.75,10.7c-5.751,2.218-11.339,4.642-16.608,7.206-5.528,2.69-10.892,5.624-15.941,8.721a176.129,176.129,0,0,0-28.382,21.651,176.128,176.128,0,0,0-23.216,26.649,176.145,176.145,0,0,0-17.416,30.754,176.143,176.143,0,0,0-10.986,33.966,176.2,176.2,0,0,0-3.9,35.485,176.146,176.146,0,0,0,3.284,35.19,176.144,176.144,0,0,0,10.256,33.821,176.129,176.129,0,0,0,17.016,31.378Z" transform="translate(21096.043 2187)" fill="#78a28f"/>
    <path id="Path_1505" data-name="Path 1505" d="M1274.907,0V846.91H216.158a175.77,175.77,0,0,1,53.341-248.9c41.52-25.459,91.385-32.548,139.679-38.963s98.136-13.234,139.926-38.268,73.641-73.507,63.817-121.128c-8.277-40.241-43.023-70.232-55.45-109.4-18.281-57.626,17.5-120.881,67.047-155.56S734.81,86.629,792.885,69.806C843.422,55.091,895.328,35.89,932.922,0Z" transform="translate(12502.716 -1042)" fill="#78a28f" opacity="0"/>
    <path id="Path_1506" data-name="Path 1506" d="M938.712,0l-.269.224c-83.4,65.858-199.211,43.337-290.08,91.07C607.7,112.672,571,149.436,565.66,197.013c-6.348,56.459,28.936,106.01,51.008,155.156,19.762,43.965,33.647,98.338,2.8,140.823-26.716,36.9-73.686,51.592-116.978,56.661-28.914,3.387-58.074,3.454-87.01,6.37a290.143,290.143,0,0,0-74.157,16.935,287.231,287.231,0,0,0-114.4,79.788C180.27,706.379,157.211,776.992,159.881,847h-2.243c-2.916-79.115,27.142-158.072,84.9-213.791a288.577,288.577,0,0,1,117.7-68.908c24.674-7.335,50.111-10.453,75.75-12.158,29.789-1.974,59.891-2.4,89.3-8.165,45.019-8.838,92.865-33.647,106.481-80.864,15.7-54.575-16.352-108.813-39.681-155.941-22.072-44.593-40.959-95.243-19.268-143.739,18.326-40.914,58.029-69.357,98.921-84.879C724.2,58.635,780.8,55.674,835.08,43.135,870.3,34.88,906.1,22.14,934.989,0Z" transform="translate(12467.721 -1042)" fill="#78a28f"/>
  </g>
</svg>
